<?xml version="1.0" encoding="UTF-8" standalone="no"?>
<svg
   xmlns:dc="http://purl.org/dc/elements/1.1/"
   xmlns:cc="http://creativecommons.org/ns#"
   xmlns:rdf="http://www.w3.org/1999/02/22-rdf-syntax-ns#"
   xmlns:svg="http://www.w3.org/2000/svg"
   xmlns="http://www.w3.org/2000/svg"
   xmlns:sodipodi="http://sodipodi.sourceforge.net/DTD/sodipodi-0.dtd"
   xmlns:inkscape="http://www.inkscape.org/namespaces/inkscape"
   width="61.076954mm"
   height="65.47831mm"
   viewBox="0 0 216.4144 232.00976"
   version="1.1"
   id="svg6"
   sodipodi:docname="mastodon2.svg"
   inkscape:version="1.0.2-2 (e86c870879, 2021-01-15)">
  <metadata
     id="metadata12">
    <rdf:RDF>
      <cc:Work
         rdf:about="">
        <dc:format>image/svg+xml</dc:format>
        <dc:type
           rdf:resource="http://purl.org/dc/dcmitype/StillImage" />
      </cc:Work>
    </rdf:RDF>
  </metadata>
  <defs
     id="defs10" />
  <sodipodi:namedview
     pagecolor="#ffffff"
     bordercolor="#666666"
     borderopacity="1"
     objecttolerance="10"
     gridtolerance="10"
     guidetolerance="10"
     inkscape:pageopacity="0"
     inkscape:pageshadow="2"
     inkscape:window-width="1440"
     inkscape:window-height="830"
     id="namedview8"
     showgrid="false"
     inkscape:zoom="2.5052826"
     inkscape:cx="115.42102"
     inkscape:cy="123.73854"
     inkscape:window-x="-6"
     inkscape:window-y="-6"
     inkscape:window-maximized="1"
     inkscape:current-layer="svg6" />
  <path
     fill="#2b90d9"
     d="M211.80734 139.0875c-3.18125 16.36625-28.4925 34.2775-57.5625 37.74875-15.15875 1.80875-30.08375 3.47125-45.99875 2.74125-26.0275-1.1925-46.565-6.2125-46.565-6.2125 0 2.53375.15625 4.94625.46875 7.2025 3.38375 25.68625 25.47 27.225 46.39125 27.9425 21.11625.7225 39.91875-5.20625 39.91875-5.20625l.8675 19.09s-14.77 7.93125-41.08125 9.39c-14.50875.7975-32.52375-.365-53.50625-5.91875C9.23234 213.82 1.40609 165.31125.20859 116.09125c-.365-14.61375-.14-28.39375-.14-39.91875 0-50.33 32.97625-65.0825 32.97625-65.0825C49.67234 3.45375 78.20359.2425 107.86484 0h.72875c29.66125.2425 58.21125 3.45375 74.8375 11.09 0 0 32.975 14.7525 32.975 65.0825 0 0 .41375 37.13375-4.59875 62.915"
     id="path2"
     style="fill:#000000" />
  <path
     fill="#fff"
     d="M177.50984 80.077v60.94125h-24.14375v-59.15c0-12.46875-5.24625-18.7975-15.74-18.7975-11.6025 0-17.4175 7.5075-17.4175 22.3525v32.37625H96.20734V85.42325c0-14.845-5.81625-22.3525-17.41875-22.3525-10.49375 0-15.74 6.32875-15.74 18.7975v59.15H38.90484V80.077c0-12.455 3.17125-22.3525 9.54125-29.675 6.56875-7.3225 15.17125-11.07625 25.85-11.07625 12.355 0 21.71125 4.74875 27.8975 14.2475l6.01375 10.08125 6.015-10.08125c6.185-9.49875 15.54125-14.2475 27.8975-14.2475 10.6775 0 19.28 3.75375 25.85 11.07625 6.36875 7.3225 9.54 17.22 9.54 29.675"
     id="path4" />
  <path
     style="fill:#000000;stroke-width:0.399157"
     d="M 96.860235,247.01176 C 76.062193,245.5497 56.509748,241.25451 45.169458,235.65657 19.108183,222.79186 5.0558862,193.91632 1.4853574,145.89173 0.28255719,129.71374 -0.23806654,82.477607 0.67146941,72.047762 2.534061,50.689025 9.9989475,33.741849 23.104643,21.118801 30.210115,14.275004 35.904413,11.101197 46.737186,7.9468274 63.827561,2.9703222 86.804858,0.44979845 115.22144,0.43435987 c 33.49031,-0.0181951 59.66674,3.44830993 76.8906,10.18250413 14.46727,5.656421 27.55973,20.96025 33.68116,39.370049 3.37172,10.140229 4.38017,16.893651 4.66512,31.24145 0.56112,28.254257 -2.70303,64.102837 -6.59388,72.417387 -6.20004,13.24917 -24.11425,25.998 -44.6238,31.75698 -7.55543,2.12152 -14.00868,3.1066 -32.88499,5.01983 -9.79347,0.99263 -29.29343,1.19099 -39.11734,0.39792 -12.892339,-1.04079 -28.728145,-3.27529 -38.253462,-5.39774 l -3.368934,-0.75067 0.220139,4.25986 c 0.691415,13.37951 6.153051,22.8244 16.05581,27.76554 8.04059,4.01199 19.705377,5.82917 37.432277,5.83135 11.62489,0.002 23.3333,-1.43604 34.28866,-4.2097 2.12538,-0.5381 4.0314,-0.97837 4.23561,-0.97837 0.2044,0 0.48988,3.09491 0.63513,6.88546 0.1451,3.78699 0.36995,8.24467 0.49965,9.90594 l 0.23582,3.0205 -4.13653,1.63701 c -14.36072,5.68316 -31.55266,8.59804 -49.64038,8.41648 -3.73211,-0.0375 -7.593953,-0.12494 -8.581865,-0.19438 z M 67.426277,116.25435 c 0.129123,-31.600158 0.19904,-34.623921 0.851381,-36.822192 1.618999,-5.45574 4.194637,-8.70507 8.456966,-10.669016 1.733282,-0.79864 2.596977,-0.905036 7.3526,-0.905734 5.230069,-7.98e-4 5.467591,0.0366 8.07285,1.270783 3.309371,1.567715 5.889248,4.146877 7.478115,7.476047 2.489411,5.216094 2.526001,5.601304 2.704351,28.473732 l 0.16263,20.85593 h 12.91585 12.91584 l 0.16263,-20.85593 c 0.17835,-22.872428 0.21494,-23.257638 2.70435,-28.473732 1.58887,-3.32917 4.16875,-5.908332 7.47812,-7.476047 2.60526,-1.234161 2.84278,-1.27155 8.07285,-1.270783 4.75562,7.98e-4 5.61931,0.107094 7.3526,0.905734 4.26233,1.963946 6.83796,5.213276 8.45696,10.669016 0.65234,2.198271 0.72226,5.222034 0.85138,36.822192 l 0.14068,34.42726 h 12.97135 12.97135 l -0.13858,-37.22135 c -0.1343,-36.070095 -0.16436,-37.332468 -0.97207,-40.813764 -1.62163,-6.989375 -3.78667,-12.020835 -7.11675,-16.539024 -7.8208,-10.611119 -20.46546,-15.695799 -34.8685,-14.021357 -7.10005,0.825424 -12.89141,3.157856 -17.88881,7.204593 -3.37703,2.734617 -5.52869,5.486606 -9.57538,12.246962 -1.89436,3.164713 -3.56931,5.611702 -3.72211,5.43775 -0.15279,-0.173949 -1.76073,-2.800363 -3.57319,-5.83648 -5.20787,-8.723858 -8.475,-12.127135 -14.783505,-15.39954 -3.971161,-2.05996 -7.406147,-3.070229 -12.42143,-3.653285 -14.403046,-1.674442 -27.047703,3.410238 -34.868506,14.021357 -3.330079,4.518189 -5.495117,9.549649 -7.116746,16.539024 -0.807709,3.481296 -0.837774,4.743669 -0.97207,40.813764 L 41.3429,150.68161 h 12.971347 12.971351 z"
     id="path14"
     transform="scale(0.93749999)" />
</svg>
